<svg width="48" height="54" viewBox="0 0 48 54" fill="none" xmlns="http://www.w3.org/2000/svg">
<path d="M18.4125 22.5H29.1C28.425 20.775 27.394 19.2935 26.007 18.0555C24.619 16.8185 23.025 15.95 21.225 15.45L17.775 21.375C17.625 21.625 17.625 21.875 17.775 22.125C17.925 22.375 18.1375 22.5 18.4125 22.5ZM13.0125 24.375C13.1625 24.625 13.375 24.75 13.65 24.75C13.925 24.75 14.1375 24.625 14.2875 24.375L19.65 15.15C19.375 15.1 19.1 15.0625 18.825 15.0375C18.55 15.0125 18.275 15 18 15C16.35 15 14.8125 15.3125 13.3875 15.9375C11.9625 16.5625 10.7 17.4 9.6 18.45L13.0125 24.375ZM6.375 30H13.2375C13.5125 30 13.731 29.875 13.893 29.625C14.056 29.375 14.0625 29.125 13.9125 28.875L8.55 19.65C7.75 20.675 7.125 21.8065 6.675 23.0445C6.225 24.2815 6 25.6 6 27C6 27.525 6.031 28.031 6.093 28.518C6.156 29.006 6.25 29.5 6.375 30ZM14.775 38.55L18.1875 32.625C18.3375 32.375 18.3315 32.125 18.1695 31.875C18.0065 31.625 17.7875 31.5 17.5125 31.5H6.9C7.575 33.225 8.6065 34.706 9.9945 35.943C11.3815 37.181 12.975 38.05 14.775 38.55ZM18 39C19.65 39 21.1875 38.6875 22.6125 38.0625C24.0375 37.4375 25.3 36.6 26.4 35.55L22.9875 29.625C22.8375 29.375 22.625 29.25 22.35 29.25C22.075 29.25 21.8625 29.375 21.7125 29.625L16.35 38.85C16.625 38.9 16.894 38.9375 17.157 38.9625C17.419 38.9875 17.7 39 18 39ZM27.45 34.35C28.25 33.325 28.875 32.1935 29.325 30.9555C29.775 29.7185 30 28.4 30 27C30 26.475 29.969 25.969 29.907 25.482C29.844 24.994 29.75 24.5 29.625 24H22.7625C22.4875 24 22.269 24.125 22.107 24.375C21.944 24.625 21.9375 24.875 22.0875 25.125L27.45 34.35ZM18 42C15.95 42 14.0125 41.606 12.1875 40.818C10.3625 40.031 8.769 38.956 7.407 37.593C6.044 36.231 4.969 34.6375 4.182 32.8125C3.394 30.9875 3 29.05 3 27C3 24.925 3.394 22.9815 4.182 21.1695C4.969 19.3565 6.044 17.769 7.407 16.407C8.769 15.044 10.3625 13.9685 12.1875 13.1805C14.0125 12.3935 15.95 12 18 12C20.075 12 22.0185 12.3935 23.8305 13.1805C25.6435 13.9685 27.231 15.044 28.593 16.407C29.956 17.769 31.031 19.3565 31.818 21.1695C32.606 22.9815 33 24.925 33 27C33 29.05 32.606 30.9875 31.818 32.8125C31.031 34.6375 29.956 36.231 28.593 37.593C27.231 38.956 25.6435 40.031 23.8305 40.818C22.0185 41.606 20.075 42 18 42Z" fill="#FF4454"/>
</svg>
